<svg xmlns="http://www.w3.org/2000/svg" viewBox="0 0 512 512">
  <rect width="512" height="512" rx="96" fill="#0a0a0f"/>
  <rect x="56" y="80" width="400" height="320" rx="18" fill="#2471a3" stroke="#c0392b" stroke-width="10"/>
  <g fill="#f0c030">
    <rect x="76" y="104" width="60" height="56" rx="4"/>
    <rect x="146" y="104" width="60" height="56" rx="4"/>
    <rect x="216" y="104" width="60" height="56" rx="4"/>
    <rect x="286" y="104" width="60" height="56" rx="4"/>
    <rect x="356" y="104" width="80" height="56" rx="4" fill="#efefef"/>
    <rect x="76" y="170" width="60" height="56" rx="4"/>
    <rect x="146" y="170" width="60" height="56" rx="4"/>
    <rect x="216" y="170" width="60" height="56" rx="4"/>
    <rect x="286" y="170" width="60" height="56" rx="4"/>
    <rect x="356" y="170" width="80" height="56" rx="4"/>
  </g>
  <g fill="#2980b9">
    <rect x="76" y="236" width="80" height="54" rx="4"/>
    <rect x="166" y="236" width="80" height="54" rx="4"/>
    <rect x="256" y="236" width="80" height="54" rx="4"/>
    <rect x="346" y="236" width="90" height="54" rx="4"/>
    <rect x="76" y="300" width="130" height="54" rx="4"/>
    <rect x="216" y="300" width="130" height="54" rx="4"/>
    <rect x="356" y="300" width="80" height="54" rx="4"/>
  </g>
  <g font-family="DM Sans, Arial, sans-serif" font-weight="700" fill="#111" text-anchor="middle">
    <text x="106" y="144" font-size="34">p</text>
    <text x="176" y="144" font-size="34">t</text>
    <text x="246" y="144" font-size="34">r</text>
    <text x="316" y="144" font-size="34">s</text>
    <text x="396" y="144" font-size="34">n</text>
    <text x="106" y="210" font-size="34">a</text>
    <text x="176" y="210" font-size="34">o</text>
    <text x="246" y="210" font-size="34">i</text>
    <text x="316" y="210" font-size="34">é</text>
    <text x="396" y="210" font-size="34">u</text>
  </g>
  <g fill="#f0f0f0" font-family="DM Sans, Arial, sans-serif" font-weight="600" text-anchor="middle" font-size="22">
    <text x="116" y="272">oui</text>
    <text x="206" y="272">non</text>
    <text x="296" y="272">merci</text>
  </g>
  <circle cx="256" cy="440" r="28" fill="#1D9E75" stroke="#ffffff" stroke-width="6"/>
  <path d="M246 430 L246 450 L266 440 Z" fill="#fff"/>
</svg>
